<svg xmlns="http://www.w3.org/2000/svg" viewBox="0 0 1200 630">
  <defs>
    <radialGradient id="g" cx="50%" cy="48%" r="65%">
      <stop offset="0" stop-color="#202018"/>
      <stop offset="1" stop-color="#020202"/>
    </radialGradient>
  </defs>
  <rect width="1200" height="630" fill="url(#g)"/>
  <g opacity=".3" stroke="#fff" stroke-width="1">
    <path d="M0 80h1200M0 160h1200M0 240h1200M0 320h1200M0 400h1200M0 480h1200M0 560h1200"/>
    <path d="M80 0v630M160 0v630M240 0v630M320 0v630M400 0v630M480 0v630M560 0v630M640 0v630M720 0v630M800 0v630M880 0v630M960 0v630M1040 0v630M1120 0v630"/>
  </g>
  <circle cx="600" cy="315" r="112" fill="none" stroke="#d8b762" stroke-width="12" opacity=".72"/>
  <text x="600" y="355" text-anchor="middle" font-family="Georgia,serif" font-size="128" font-weight="800" fill="#d8b762">K</text>
  <text x="600" y="500" text-anchor="middle" font-family="Georgia,serif" font-size="54" letter-spacing="14" fill="#f5f1e8">KABAL</text>
  <text x="600" y="552" text-anchor="middle" font-family="Arial,sans-serif" font-size="24" letter-spacing="4" fill="#a8a092">ETERİN VARİSLERİ · MULTIPLAYER TABLE</text>
</svg>
